<?xml version="1.0" encoding="utf-8"?>
<!-- Uploaded to: SVG Repo, www.svgrepo.com, Generator: SVG Repo Mixer Tools -->
<svg width="800px" height="800px" viewBox="0 0 1024 1024" class="icon"  version="1.1" xmlns="http://www.w3.org/2000/svg"><path d="M239.616 247.808s28.672-73.728 75.776-75.776c47.104 0 73.728-86.016 108.544-90.112s94.208-8.192 94.208-8.192 59.392-63.488 112.64-43.008S737.28 83.968 737.28 106.496s40.96 2.048 40.96 2.048 75.776 34.816 77.824 86.016 0 92.16 0 92.16v284.672h-614.4l-2.048-323.584z" fill="#FFFFFF" /><path d="M260.096 909.312h589.824v83.968H260.096z" fill="#4961A4" /><path d="M839.68 921.6H253.952V262.144h116.736V491.52l67.584 8.192 14.336-163.84 61.44-22.528 10.24-51.2H839.68z" fill="#F5BF1F" /><path d="M585.728 428.032m-34.816 0a34.816 34.816 0 1 0 69.632 0 34.816 34.816 0 1 0-69.632 0Z" fill="#FFFFFF" /><path d="M743.424 83.968C716.8 34.816 667.648 4.096 614.4 4.096c-45.056 0-88.064 22.528-116.736 59.392-12.288-4.096-26.624-6.144-40.96-6.144-55.296 0-104.448 32.768-126.976 86.016H327.68c-57.344 0-102.4 47.104-102.4 106.496v163.84H182.272c-45.056 0-81.92 36.864-81.92 81.92v204.8c0 45.056 36.864 81.92 81.92 81.92H225.28v153.6c0 47.104 38.912 86.016 86.016 86.016h481.28c47.104 0 86.016-38.912 86.016-86.016V221.184C880.64 143.36 819.2 79.872 743.424 83.968zM223.232 741.376h-40.96c-22.528 0-40.96-18.432-40.96-40.96v-204.8c0-22.528 18.432-40.96 40.96-40.96h40.96v286.72zM327.68 184.32c4.096 0 8.192 0 10.24 2.048l18.432 4.096 6.144-18.432c14.336-43.008 51.2-71.68 94.208-71.68 14.336 0 26.624 2.048 40.96 8.192h2.048c16.384 8.192 32.768 22.528 40.96 38.912 4.096 8.192 14.336 12.288 24.576 10.24 12.288-4.096 18.432-18.432 12.288-28.672-10.24-18.432-24.576-32.768-40.96-43.008 20.48-24.576 49.152-38.912 79.872-38.912 43.008 0 81.92 26.624 98.304 69.632l6.144 16.384 16.384-4.096c6.144 0 10.24-2.048 14.336-2.048 49.152 0 88.064 43.008 88.064 96.256v8.192H530.432c-12.288 0-20.48 8.192-20.48 20.48v40.96c0 8.192-6.144 14.336-14.336 14.336-30.72 0-55.296 24.576-55.296 55.296v114.688c0 8.192-6.144 14.336-14.336 14.336h-4.096c-8.192 0-14.336-6.144-14.336-14.336v-225.28c0-12.288-8.192-20.48-20.48-20.48h-118.784C278.528 202.752 301.056 184.32 327.68 184.32z m466.944 796.672H313.344c-24.576 0-45.056-20.48-45.056-45.056V921.6h573.44v14.336c-2.048 24.576-22.528 45.056-47.104 45.056zM839.68 880.64H266.24V270.336h100.352v204.8c0 30.72 24.576 55.296 55.296 55.296h4.096c30.72 0 55.296-24.576 55.296-55.296v-114.688c0-8.192 6.144-14.336 14.336-14.336 30.72 0 55.296-24.576 55.296-55.296v-20.48H839.68V880.64z" fill="#3F4651" /><path d="M524.288 430.08c0 34.816 26.624 61.44 61.44 61.44s61.44-26.624 61.44-61.44-26.624-61.44-61.44-61.44-61.44 26.624-61.44 61.44z m61.44-20.48c12.288 0 20.48 8.192 20.48 20.48s-8.192 20.48-20.48 20.48-20.48-8.192-20.48-20.48 8.192-20.48 20.48-20.48z" fill="#3F4651" /></svg>