<svg class="svg-icon" style="width: 1em; height: 1em;vertical-align: middle;fill: currentColor;overflow: hidden;" viewBox="0 0 1024 1024" version="1.1" xmlns="http://www.w3.org/2000/svg"><path d="M512.240128 151.0912c-48.2816 0-97.3824 10.1376-146.944 29.5424L277.283328 28.16a38.4 38.4 0 1 0-66.5088 38.4l85.1456 147.456c-16.9984 9.6768-34.048 20.1216-51.0976 32a38.4 38.4 0 0 0 43.9296 63.0272c15.36-10.7008 30.5152-19.5584 45.7216-28.16l50.8928 88.1664A190.6688 190.6688 0 0 0 320.240128 512a192.256 192.256 0 0 0 192 192 190.464 190.464 0 0 0 60.3648-10.6496l47.8208 82.8416a319.6928 319.6928 0 0 1-108.1856 19.9168c-200.3968 0-375.4496-215.04-426.5472-284.16 12.6976-17.2032 32.9728-43.3664 59.2384-72.8576a38.4 38.4 0 1 0-57.2928-51.0976C37.257728 444.4672 7.766528 489.0624 6.588928 490.9056a38.2976 38.2976 0 0 0 0 42.1888c9.1136 13.8752 226.6112 339.8144 505.6512 339.8144 51.456 0 100.7616-11.2128 147.0976-29.3376l87.9104 152.2688a38.4 38.4 0 0 0 66.5088-38.4l-85.1968-147.5584c167.8848-95.3856 282.7776-266.8032 289.3312-276.7872a38.2976 38.2976 0 0 0 0-42.1888c-9.0624-13.824-226.56-339.8144-505.6512-339.8144z m87.2448 435.2512l-108.1856-187.392c6.8096-1.28 13.7728-2.1504 20.9408-2.1504 63.5392 0 115.2 51.712 115.2 115.2 0 28.4672-10.752 54.2208-27.9552 74.3424z m-87.2448 40.8576A115.3536 115.3536 0 0 1 397.040128 512c0-28.4672 10.752-54.2208 27.9552-74.3424l108.2368 187.4432c-6.8608 1.28-13.824 2.0992-20.992 2.0992z m178.1248 116.5312l-51.2512-88.7296a190.7712 190.7712 0 0 0 65.1264-142.9504 192.256 192.256 0 0 0-192-192 189.952 189.952 0 0 0-60.3136 10.6496l-47.8208-82.7904a319.9488 319.9488 0 0 1 108.1344-19.968c200.3456 0 375.3984 214.9376 426.496 284.1088-35.072 47.4112-128.4608 163.4304-248.3712 231.68z" fill="#438CFF" /></svg>